<mxfile host="65bd71144e">
    <diagram id="letWoG4IkiqbJz6vKnQ1" name="Page-1">
        <mxGraphModel dx="1247" dy="786" grid="1" gridSize="10" guides="1" tooltips="1" connect="1" arrows="1" fold="1" page="1" pageScale="1" pageWidth="1920" pageHeight="1200" math="0" shadow="0">
            <root>
                <mxCell id="0"/>
                <mxCell id="1" parent="0"/>
                <mxCell id="2" value="" style="whiteSpace=wrap;html=1;aspect=fixed;" vertex="1" parent="1">
                    <mxGeometry x="360" y="210" width="80" height="80" as="geometry"/>
                </mxCell>
                <mxCell id="3" value="" style="shape=cylinder3;whiteSpace=wrap;html=1;boundedLbl=1;backgroundOutline=1;size=15;strokeColor=#F0F0F0;" vertex="1" parent="1">
                    <mxGeometry x="110" y="440" width="200" height="200" as="geometry"/>
                </mxCell>
                <mxCell id="4" value="" style="shape=cylinder3;whiteSpace=wrap;html=1;boundedLbl=1;backgroundOutline=1;size=15;" vertex="1" parent="1">
                    <mxGeometry x="420" y="440" width="190" height="190" as="geometry"/>
                </mxCell>
                <mxCell id="6" value="" style="endArrow=none;html=1;" edge="1" parent="1" target="2">
                    <mxGeometry width="50" height="50" relative="1" as="geometry">
                        <mxPoint x="210" y="460" as="sourcePoint"/>
                        <mxPoint x="430" y="410" as="targetPoint"/>
                        <Array as="points">
                            <mxPoint x="230" y="440"/>
                        </Array>
                    </mxGeometry>
                </mxCell>
                <mxCell id="7" value="" style="endArrow=none;html=1;entryX=1;entryY=1;entryDx=0;entryDy=0;" edge="1" parent="1" source="4" target="2">
                    <mxGeometry width="50" height="50" relative="1" as="geometry">
                        <mxPoint x="380" y="460" as="sourcePoint"/>
                        <mxPoint x="430" y="410" as="targetPoint"/>
                    </mxGeometry>
                </mxCell>
                <mxCell id="9" value="&lt;div&gt;name:...&lt;br&gt;titel:..&lt;br&gt;.....&lt;/div&gt;" style="text;strokeColor=none;fillColor=none;html=1;whiteSpace=wrap;verticalAlign=middle;overflow=hidden;" vertex="1" parent="1">
                    <mxGeometry x="140" y="490" width="100" height="80" as="geometry"/>
                </mxCell>
                <mxCell id="10" value="username:.....&lt;br&gt;bookmarked:[ .. , .. ,]&lt;br&gt;is COmpleted: ....." style="text;strokeColor=#02001D;fillColor=none;html=1;whiteSpace=wrap;verticalAlign=middle;overflow=hidden;" vertex="1" parent="1">
                    <mxGeometry x="440" y="480" width="150" height="140" as="geometry"/>
                </mxCell>
                <mxCell id="15" value="" style="shape=stencil(fZbdcgIhDIWfZm8zQAg/17Z9j85U606tdqz9e/tmZ0c0uJ47xP0I5JwEBl59bp8/1kNwn6fj4W39M76ctgM/DCGM++36OJ50NPDjwKvN4bh+PR6+9i/z74/n6ctp9H74nlb4nbmSKZeJCu5vngmZ6jzzNAO7cX8FVKEsBuBKrgKg9oAE8gkCbLeUhEoEQKSUDZDLeWYRKIl8MEDRmHwfyBrBG6Amyu4+kDxxMoB3jhwgYu7TVAsVkFcWCs4CTBEoF4RctKeOxHIf8IXYpikHikAIf+MNUW94AGSSaoAoFIE3AlOyeWU+p2E5S9yfQZcQILVuQOwZdJNoS9Ls3wA5u2XZTIHECqeJ9kDpSaauRiNVcAY1QhdBzeLBli5WazpkSsBLV25uRaqWRyFawTQzRRIQYirJzq5atkBqLfouwqUxLBepthWb10vrWZY6UOAeyKCCtDV625mm9gmUC4Wc3VLJMMIE1BsA2FW9JraVlQB7n3c9oMKhCLEvIM1zBPZ25/umNQ1tVEC2G+fFCC8g398O2hNQuQlVu752DBfA+q0ptnqO5JFmeuIuo9DY7KjY71UxdJV4EntifPWorW++R/dC4t7V3DlIB5cHx2bc7eb3yvX//QNFp+bHDT/+Aw==);lineShape=1;strokeColor=#F0F0F0;" vertex="1" parent="1">
                    <mxGeometry x="195.7816919099862" y="535.5001785477255" width="2.67002272692298" height="2.6658492664898534" as="geometry"/>
                </mxCell>
                <mxCell id="16" value="" style="shape=stencil(fZbdcgIhDIWfZm8zQAg/17Z9j85U606tdqz9e/tmZ0c0uJ47xP0I5JwEBl59bp8/1kNwn6fj4W39M76ctgM/DCGM++36OJ50NPDjwKvN4bh+PR6+9i/z74/n6ctp9H74nlb4nbmSKZeJCu5vngmZ6jzzNAO7cX8FVKEsBuBKrgKg9oAE8gkCbLeUhEoEQKSUDZDLeWYRKIl8MEDRmHwfyBrBG6Amyu4+kDxxMoB3jhwgYu7TVAsVkFcWCs4CTBEoF4RctKeOxHIf8IXYpikHikAIf+MNUW94AGSSaoAoFIE3AlOyeWU+p2E5S9yfQZcQILVuQOwZdJNoS9Ls3wA5u2XZTIHECqeJ9kDpSaauRiNVcAY1QhdBzeLBli5WazpkSsBLV25uRaqWRyFawTQzRRIQYirJzq5atkBqLfouwqUxLBepthWb10vrWZY6UOAeyKCCtDV625mm9gmUC4Wc3VLJMMIE1BsA2FW9JraVlQB7n3c9oMKhCLEvIM1zBPZ25/umNQ1tVEC2G+fFCC8g398O2hNQuQlVu752DBfA+q0ptnqO5JFmeuIuo9DY7KjY71UxdJV4EntifPWorW++R/dC4t7V3DlIB5cHx2bc7eb3yvX//QNFp+bHDT/+Aw==);lineShape=1;strokeColor=#F0F0F0;" vertex="1" parent="1">
                    <mxGeometry x="195.7816919099862" y="535.5001785477255" width="2.67002272692298" height="2.6658492664898534" as="geometry"/>
                </mxCell>
                <mxCell id="19" value="" style="shape=stencil(rVrZbhw3EPyafSV4H8+O8x8GLEdCFMuQlevvU4NFr4fFmVoZyNse3Ryyj+rq5lzSh++Pn749XKL//vb68vvD30+f3x4v6ZdLjE9fHx9en97w6ZI+XtKHLy+vD7+9vvz59fP1+7dPm+T26Y+Xv7YV/rnqtea637Si//f6S3Tt+sOvV/nnp697+exKIflahXx0OfL6Rch75wfJd7Gf2lypLJ+EfF7PK+WD653kRz6XL93VMMknF4aQL84Xkq/CPiW4lCb57KLYf26uzfbHA4U9c3Zh3k/V8t7V2Z7NRWGf1MwcJt9dC0I+mblNPngXhUFTcH4OiBCkx7CBNJ8gwAXCpLBgm48QigXhsUJyaY6J0PQTggt0huGaOAP+DvMTEKbKbdgAp1l2ScQdjhhnPyAwlONgxEwKw0WlEDgz4crWhIJ3abZSyjL2Bod2qq4KeUAjyWMFhUUsn4PLws3FDUrl5LqwEDKX5KtcH9aYoSsPW+E4dVyb1wfYFJVqHBIFTxT2AXISFCGEVN5wQJQhUx/yc0wDvKsIoMSJX5OtcCLf53ir1cD7xP6V9tOlfGF5FMMg5Ksbc7yh2Koc7i63WR7FMOoEmx0GtlBEAIXIGdmxhLBoyBZgN4VkQXuKW/OWerVfzpCRDt27KyIoEEUU1QMVRWQl3BbmNBso+brgUF6ObMhxVtIyKVTD+2OF7AYpNKuKxwrdEnGnoApOvrG4m0KX2AIeEvKiIBwH7KnLlqpCx+piYSspqlk9U6NRJJ7WwgUEni5iSxXBRwpBssG2FM070YqEJGrRi8S8HowX3BSiJJwdvGDeUsOpRCz1xmdo1YD2uCx7ZjswQxKhMSKbFUCpzoD8otAAEitkRagx1Ac71bFCZ1yCguIKUIj0BC8bESiUzgry0J3Lbb1x9WMFVNe2KAhPQ2HdUldWGlZv9lZSnh5urH6QnNBzfG8dnN4TmylKngoFoklQKPoJubJCE0UOCmF5wlBb6rbeXkEHE+UoFBQVGH1pC6NEY2TQWJ4gUaBZ+O8cp/q2TSGzgmrDti0VVpCexqGXhLjjh7woqGkKFHpghTs5GhbYUK3kFnxLjqquagvvxUqqUG8JtDhOtpKHOdp+Dgai9a//k0JZMmhIoEHlp+ak6Y57hKUsZl2pu/29Y98qmFD5y+wIsO+hFCIPAVDsgwCm1nn4hGIf1TQP5GE+A4p9FJ5GIaeyOG5d4xkno5ICVybFyYL1qDteqYAJvJImjKNLx4G58paGDU3fy42HEfgz9l1nP+xy6ozgMxMdMpjQQlAwQUG1Qckzft/pCGLjyTD4elXtfeZwBa9T8R0R/hR9UeJM6HbEd4ZrKEt3iSZF9a+RrYSUU5UaPXgmgh8lsew8XwVdl/lgq+3Yuuo4srVIOxhT5SGxSZseKoUFufX+Aw/FajXufijvFzKWLTVO5P3CMtTQaqltZUiK65ljAG9U9fTGNW/ySRIx2GcubEVzmGCwcBsadqMcJ0O3Mmdx1k10Yj6ygZmMt0L78fLCo/DYIDXj62dDtDlfUrGG9yS/qB1OUQ5vBt8fASjV+iHwBRKAUsFiSGyhbSKlPFw4Be7c+YW23Pl5IwJnQzdqkX4g69nQjW7BsEmVxdtsdQ47mEHRWhiRqAsMrZqwtCQmoFglckqs0CWDTHVh5nIAkFdksX79WD7Z5cYt8qz/OWMhNA6P0gUbjtA1mJXbY/m8BIW8rSnItNk+3sYNZ8SuNZIPYj/rTbCmUOtNs5Zfb7K95EPrTbk36D7j1pSVXgL1etPvbcxwRvY921/Zc2sOeD9qlA/5wvZRhbgtQw4vcRHyI5D8UPbpPDQP1ou8W16Oapf9oE/Q8o3fPFDXCqs9oyXQO/0VZZeyxsOdNz9+9s2Su/L48OM1li9Pz8/Xt2D2//NrL/jp+spM+vgf);lineShape=1;strokeColor=#F0F0F0;" vertex="1" parent="1">
                    <mxGeometry x="383.73290764187004" y="234.38712400192162" width="30.115996178809517" height="28.04450154366448" as="geometry"/>
                </mxCell>
                <mxCell id="20" value="" style="shape=stencil(lZbdUttADIWfxrdnpNX+XlN4D2YIjYc0YUKg5e3R1mOIlkSd3vnv88pHR8c7yc3L9v55MwV6OR0PT5vf88NpO8mPKYR5v90c55MeTXI7yc3j4bj5eTy87h+W8+f7/mQ/+nV462/4s3CNUEKnAr0vV2JCan+v3C3Abt6fAxmlGCAJWnWAhsoGyIKaXSCJAUoEeyUltGyAqis4QG2IFmiMFh1AVbIltYLE14FCyFYlJgLRdSITJNolGtiRKRGq7ZzqQE4jooBtI2oFO4BUkAVK84EMsrrmBhIHKGMjUkV1VIphXCGqW5zO6W1pFggITklaQK4G0CKzs0KuaMkCGSE53lARrZlU6OB8dG+TXUFbGfyBoGFG6V8zykPjCLFcB87c/OkNWoPh8hI6MBbQofJa3UdysGtbX3FZJh36YUg1GJySeqzYkr6i53KrBeXbjFYnBjQa6wBofHozmhCHoVZZHTN1QP4HkDima09Dx0whrm7+BBKyE0yc1rQ+i43ofHRBtW4tDHHaEMYwzrym7cXn1ar2AxKvKXLteWuLSODg1ZNsYgRfUc0TWz831xQcR4GYkZweBxmBBHEmRz0x/Bm0AY6garpBofHfpgdfO47HebdbNizn98cdil5adjdy+wE=);lineShape=1;strokeColor=#F0F0F0;" vertex="1" parent="1">
                    <mxGeometry x="161.6827864650611" y="262.2732219288981" width="1.3592555352638431" height="1.3634252765429689" as="geometry"/>
                </mxCell>
                <mxCell id="21" value="" style="shape=stencil(lZbdUttADIWfxrdnpNX+XlN4D2YIjYc0YUKg5e3R1mOIlkSd3vnv88pHR8c7yc3L9v55MwV6OR0PT5vf88NpO8mPKYR5v90c55MeTXI7yc3j4bj5eTy87h+W8+f7/mQ/+nV462/4s3CNUEKnAr0vV2JCan+v3C3Abt6fAxmlGCAJWnWAhsoGyIKaXSCJAUoEeyUltGyAqis4QG2IFmiMFh1AVbIltYLE14FCyFYlJgLRdSITJNolGtiRKRGq7ZzqQE4jooBtI2oFO4BUkAVK84EMsrrmBhIHKGMjUkV1VIphXCGqW5zO6W1pFggITklaQK4G0CKzs0KuaMkCGSE53lARrZlU6OB8dG+TXUFbGfyBoGFG6V8zykPjCLFcB87c/OkNWoPh8hI6MBbQofJa3UdysGtbX3FZJh36YUg1GJySeqzYkr6i53KrBeXbjFYnBjQa6wBofHozmhCHoVZZHTN1QP4HkDima09Dx0whrm7+BBKyE0yc1rQ+i43ofHRBtW4tDHHaEMYwzrym7cXn1ar2AxKvKXLteWuLSODg1ZNsYgRfUc0TWz831xQcR4GYkZweBxmBBHEmRz0x/Bm0AY6garpBofHfpgdfO47HebdbNizn98cdil5adjdy+wE=);lineShape=1;strokeColor=#F0F0F0;" vertex="1" parent="1">
                    <mxGeometry x="647.2030047241556" y="2056.005200541392" width="2.3948788002265546" height="2.4022254872423736" as="geometry"/>
                </mxCell>
                <mxCell id="22" value="" style="shape=stencil(7VzLctw2EPwaXVHA4H12kv9wleVYFcdyyc7r7zMTGdSyh2zGt6RKN3vFXgKYd89g7/KbLx/efr6/k/jl69PjL/d/PLz7+uEu/3An8vDpw/3Tw1f9113+8S6/ef/4dP/z0+Nvn949///zW3vS/vXr4+/2DX8+43IJUwwl8a/nT5KENP/55KdnwMeHT7cACSMjYEQCiCHHPSCHIecAGUH6HlBCKwRQQxt7wPbJMUBX3PaAHhLZQ5pu0yN0Bmih7wESQ0sEkEObe4CETvaQIi5JVJT1HDBChuf5nltIeynIDLmdP19C3Ys5p1CJ1HJIZf98Dp2pRYj7A8p1SfH4gELbrz93qnZpyWd7XoVOzjOFuX++pDCI4UjIeyUtZZ3A2fnU/fMtZLL+EuJ+v2VQq6kh7Q2/qoaS/erb999fJRSynh7aXt+qrpDIa4QB31+XHzgzgLg/0NqCMIEltAAFjAubbA7A3rBZ4A3g2zvP3IQk3HRlgL5s6uZUM3NEeqwAECpm9VOgR6oXlchNDUH2hq+Kl5ghy9LjDVCXbh0DcpC94IrQU1LA3AtObZl5X3Ne+zfktmR/BpgAyDQKmrmBO0ohsT2o9u8FpxbSmX+pKDg1WRpnywphNxGEWbT+uQkCEj/WBm/INKjJFuhvAIWF/uLibObHWsLYe42XZOD0WBsCLrIRSF8UULlqQORUQOGq0YsD8CVNvyQG8MFfsxEmafVzbkmTv6HAGzYrPwNUpxqVObIeBASn72Ry6JgKq8XRNHIs+/q3KY/6VsiRCvVL9n3whkGDqHohUL6yfcUxoGJY17Rksjf0pQi37p7IoUT03hpQJjlWde4gh6q7YgC1B586sFR1oF/SOM3Uu6ZQIE53GhQ1KqeBgEZinC4A0lX9ZBJ3Xyfqkm6aJSctoSOzRZIlNVnfd5M6RHJKTVMRSFknDShNPR/kxI26ytbQHkqmSXHrmCSqOiYiOAVkKDMa1VYFFDDRvCqzMwBmApGmobrpDqXh5qnOAOj56trVmRyac8YUUNAJaBZYmC45SUvhe1Cb3uuSeluqS7ppJ4fIAZAZq2/NXNJQoqurpKc0Vqa9GVDiJfd0BcdYBcJxjRVxSXpuheyhJ0wdulAD0j9DktgHDVldE7b9HsbmC48BBWugMWghrQCwhykrGz8GuNx7Vqp8CoDkZPYVYs4AkJxMnjoYoCKAsTcG2J/SnEvhT/dQEMBMVAFQlingYg94rHOZ1Jng5kQA3XRZjnGj3eKWQp0hmtsEc98K8Mc0+RtkIKCTiKIAIHIUwHIHBUQHYCyCASICIhO1Zv/OIBidqW4D6mM1OeZc1THBpkeniWsbSL8NzVeIMllk3wNeHMlZRAHHpBGASVqDXIQ8dFJGqglGRfX3rFTUlAw4Mo0ojMJqES0odx4VI1qQlhT0lBLSrLJF4jMAFqORJq56SkCcJs6qNccsp8zl0FBbU+SZ7nS6xC00IftTKQnXK7ZANEgyv+dIu41sPqZOBeNVXGTq8fMNuV9+PmMuZv7leeaFZ16m+/I8IzQsHEM/htZvGisTpJ+0bLDIB5nbqlROqGVXqDcqAHsB+EdaA2g6gYFNaBCZjiOyFhfbsnPxaVAZjIn5swmB9ZPqIjxvUnpK8IvrQDUeOQeamR4rIwLUzjwhQ9Nh54u0aMg84Ya6Plcaaq3wcR6bcUQKgD6RAVhZUt2SOqV8FIAsVKf8uzpgaJcqgFE+Vh7Ckhp1SAboCKgXSxIEMNVonrBvIbIyvR71G9mmaxAHoJHT2XTeiN3TmtgBKNVQsadmm+Y5EuYXvKemoRY8fW5cvY8ArGhoLjaY8nH1hsa4qTeXA5TpZkAXmaQHcBMVD+BLig7AvLept7NpRqebAUWUw7ww0YYAxmg2V6YrgPIrZZX9NwDWXrJTAl2qPKOvjiOqtK7/fsDEUZS88SFnEQjpw3RVdWN7aa6W1lkUBVbWWvMEoIUXZHvWvOSZABR71o9igIF0SeL92ZlQl6xmYOlPWQn8Bii0nJwNiQMbFyBljKZwE1M++oKBgr5I4LrjxilxbRU8SI32cabrsshlDbAXcqLBajTkSRK1zeGIRqEZQJ9rTO2lpmI+WO2mY80WeWpYsQSgccrVSIP7044tJVM4HkSg95EuCI+C7jFdJIbi8u202rpngAx1WKW+SAHosRMdglIAOuBO2WTftCqZLym7Wv6CIXHBvPLBDOvfgCY1npAMNJ3OdVt1D8qYETljmFC5R6MVdxfMwiYXXC9YoqtLZv6iuxJAPSClGF8592+AV879/8C5O29sLBZ7Q8ZJpdm49mWkGmZeJekZAGhPI4EYQHAmbRQ6iNc3+mXzZJPrUkTH1PngUXPMW+NjwepccY51rHM7C9RgozVdDSkA21sKHcQzygdKq8GrjIJ9A6syLlIBSK74/LpGRWjHSOGsfsaEW/O3i+wE2jFaAzBdMlYfqozII3tf9nWzpAtJ4xhE4TnfcIXPBREwkIjO/FqAArojKCmTNpxqdM7guNsW5WJJHWc0S6E23VxpVTodxPNMmo0gMzlkN2ueeYaV3KBFXZMUh4A614o3AOeIbFIc9jDo9YbqQpa9k83vpwMA60LZnJ5bEpNDqW5yr9HJjCI4eKS7YtqanfeuQhOm7GahCg/suWDToTQa47KsEZ0NwC/iqAXLXr11V6yHoK4XHFmu9JTsog5UTUJzaS1VIZsRfpdFXINS33kxd/06Cv46Cn4C+M+Ngjc3fcijqPiRy8YvkDSnS7y2FHdB0FqVF6cEAD4rYk7gu1oCqhrAUGomwOgfM1Fwxnyu4cXkb5wxvcjjSEFz98yA3MC8BhR6Sm5QSUMWi9PJJVh1E+UxoLsxorHKqGOAG1TSwM6o35RRW+uknUe74utSB9ZITBHlUCef6MDU24osRglgO7d2XtA4Mr1SH1MxgqqUhV1aRjK3Cm2BCFY/hTdlkiP3+X4jrueipIyYiBWhOYm/mDLpLcGIRID6FsZ+RLwYaRdfmAN2M/I8DrqbmpaVsfQcGSjpfITY3c6uVJ/VYIAktol6dps1u2I10X6MXR11V9KZCWh5DYMl+hWsQySuNZkqnRX3WaTd9GdRs2PXWj0TvXHliO6U6KZVbSDXNlfG0n+Xdpoomac44Ev5DyiURY7evoHpdkXVUACTQ3ZppwJoVeUugSmAXX/NbgIicS4mVyQCVXBsiiO7EXxrj10sSRDA2B7bdEEA/SELNwxgysc3DZePLPCy637f/WMc1wD9x8tvf7x/+Pjx+adDbv+OvxWiHz3/zkj+8W8=);lineShape=1;strokeColor=#F0F0F0;" vertex="1" parent="1">
                    <mxGeometry x="484.5708234561787" y="315.36560840987727" width="71.7436888500788" height="49.94132570929374" as="geometry"/>
                </mxCell>
                <mxCell id="23" value="" style="shape=stencil(rZfbbtswDIafxreEKOp43XXvUaDpEixLijTd4e1HzZNjScnfBdidI/OLSP4UKU/y8LZ9et1M1rydT8evmx+75/N2kk+TtbvDdnPanfVpksdJHl6Op82X0/H98Dz/fn0qluXp2/F7+YefM2ctRVMoa37NK0w2/ln4PNvvd4eVvTAFae0N5XQbcMvrCuiWTgAQSUIDiKEEXPKeEjeA7pmAS8ETxwbwTNHdBqKQa2MItqbhKpCYxDVA1DwHAGTybQzJwhjYGDKtcDlRAEHkTKHNq64YD4BENvcAUi4HMq4HIgKEWHogo7xmSq1LqzxcJ0JNyr9uIRTtEATIq2rt/JAmBJia9rUQoDiiKteWX5EaKKc7yABY5JKtDixAhOWXHPkBCAyA5fUKcCDorH3DDAAqJkcm9YBHByL0fUOBCBqNJrEHEjEoPtU1DTr4D4DcA9lil4ZaEqBDCTr2AGwbjnjYAZVGEW5oG39XbpVGN4IKAHTQ4gtD20ggS1rePJxpjw+Q4x5gEEM5ooNw8X8CIZPtJoR2TyBcUB3aI6pjzIDS8LYXLuAZ5FxN4jJHtY+AIyqu38ExMWgCNtS2tdwFGAbN2nrbHcoFBx2gfiiyjm5gP0xdvQ/dZ45uV6b3xsBZxZRdZ46ckdrdLuYCkj9Mc1OvTdfPTN37Ym6QUppn39uD1sja3vM9/6+Dv48Wuc9pTCbKjr6OvVboSqh1OKQTaXvvxfxje324fAW87Pb7+SNi/b7/atCl+YtDHn8D);lineShape=1;strokeColor=#F0F0F0;" vertex="1" parent="1">
                    <mxGeometry x="582.0765898015436" y="319.59475248677654" width="4.304594114841483" height="34.01651116321714" as="geometry"/>
                </mxCell>
            </root>
        </mxGraphModel>
    </diagram>
</mxfile>
